<?xml version="1.0" encoding="UTF-8" standalone="no"?>
<svg
   xmlns:dc="http://purl.org/dc/elements/1.1/"
   xmlns:cc="http://creativecommons.org/ns#"
   xmlns:rdf="http://www.w3.org/1999/02/22-rdf-syntax-ns#"
   xmlns:svg="http://www.w3.org/2000/svg"
   xmlns="http://www.w3.org/2000/svg"
   viewBox="0 0 133.33333 133.33333"
   height="133.33333"
   width="133.33333"
   xml:space="preserve"
   id="svg2"
   version="1.1"><metadata
     id="metadata8"><rdf:RDF><cc:Work
         rdf:about=""><dc:format>image/svg+xml</dc:format><dc:type
           rdf:resource="http://purl.org/dc/dcmitype/StillImage" /></cc:Work></rdf:RDF></metadata><defs
     id="defs6" /><g
     transform="matrix(1.3333333,0,0,-1.3333333,0,133.33333)"
     id="g10"><g
       transform="scale(0.1)"
       id="g12"><g
         id="g14"><path
           id="path16"
           style="fill:none;stroke:#000000;stroke-width:44;stroke-linecap:butt;stroke-linejoin:miter;stroke-miterlimit:10;stroke-dasharray:none;stroke-opacity:1"
           d="m 500,940 c -16.914,0 -33.581,-1.139 -50,-3 v -61.25 c -4.59,-0.591 -9.169,-0.736 -13.75,-1.5 -12.635,-2.153 -24.584,-6.123 -36.75,-9.5 -10.222,-2.794 -20.426,-5.047 -30.5,-8.75 -4.665,-1.731 -9.175,-3.591 -13.75,-5.5 l -30.5,53 C 309.6,896.902 294.648,889.457 280,881 265.352,872.543 251.539,863.321 238.25,853.5 l 30.5,-52.75 c -3.978,-3.033 -7.883,-6.048 -11.75,-9.25 -8.91,-7.43 -16.674,-15.641 -24.75,-23.75 -8.106,-8.073 -16.322,-15.843 -23.75,-24.75 -3.202,-3.867 -6.217,-7.772 -9.25,-11.75 l -52.75,30.5 C 136.679,748.461 127.457,734.648 119,720 110.543,705.352 103.098,690.4 96.5,675.25 l 53,-30.75 c -1.647,-3.954 -3.486,-7.729 -5,-11.75 -4.778,-12.8 -7.941,-25.718 -11.25,-38.75 -2.592,-10.045 -5.485,-19.894 -7.25,-30.25 -0.769,-4.602 -1.156,-9.138 -1.75,-13.75 H 63 c -1.8608,-16.419 -3,-33.086 -3,-50 0,-16.914 1.1392,-33.581 3,-50 h 61.25 c 0.591,-4.59 0.736,-9.169 1.5,-13.75 2.18,-12.795 6.065,-24.936 9.5,-37.25 2.765,-10.063 5.103,-20.08 8.75,-30 1.705,-4.594 3.623,-8.993 5.5,-13.5 l -53,-30.75 c 6.598,-15.149 14.043,-30.102 22.5,-44.75 8.457,-14.648 17.679,-28.461 27.5,-41.75 l 52.75,30.5 c 3.033,-3.977 6.048,-7.883 9.25,-11.75 7.43,-8.91 15.641,-16.674 23.75,-24.75 8.029,-8.062 15.646,-16.358 24.5,-23.75 3.875,-3.213 8.013,-5.958 12,-9 l -30.5,-53 c 13.289,-9.821 27.102,-19.043 41.75,-27.5 14.648,-8.457 29.6,-15.902 44.75,-22.5 l 30.5,53 c 4.575,-1.909 9.085,-3.769 13.75,-5.5 10.074,-3.703 20.278,-5.956 30.5,-8.75 12.158,-3.375 24.123,-7.097 36.75,-9.25 4.601,-0.768 9.14,-1.156 13.75,-1.75 V 63 c 16.419,-1.8606 33.086,-3 50,-3 16.914,0 33.581,1.1394 50,3 v 61.25 c 4.599,0.593 9.161,0.984 13.75,1.75 11.943,2.043 23.224,5.612 34.75,8.75 11.071,2.96 22.101,5.475 33,9.5 4.441,1.659 8.641,3.68 13,5.5 L 675.25,96.5 c 15.149,6.598 30.102,14.043 44.75,22.5 14.648,8.457 28.461,17.679 41.75,27.5 l -30.5,53 c 3.656,2.793 7.437,5.314 11,8.25 9.173,7.607 16.956,16.177 25.25,24.5 8.376,8.337 17.098,16.273 24.75,25.5 2.928,3.559 5.465,7.348 8.25,11 l 53,-30.5 c 9.821,13.289 19.043,27.102 27.5,41.75 8.457,14.648 15.902,29.601 22.5,44.75 l -53,30.75 c 1.917,4.601 4.013,9.058 5.75,13.75 3.868,10.552 6.128,21.288 9,32 3.16,11.603 6.95,22.973 9,35 0.764,4.581 0.909,9.16 1.5,13.75 H 937 c 1.861,16.419 3,33.086 3,50 0,16.914 -1.139,33.581 -3,50 h -61.25 c -0.591,4.59 -0.736,9.169 -1.5,13.75 -2.05,12.027 -5.84,23.397 -9,35 -2.872,10.712 -5.132,21.448 -9,32 -1.737,4.692 -3.833,9.149 -5.75,13.75 l 53,30.75 c -6.598,15.15 -14.043,30.102 -22.5,44.75 -8.457,14.648 -17.679,28.461 -27.5,41.75 l -52.75,-30.5 c -3.033,3.978 -6.048,7.883 -9.25,11.75 -7.43,8.91 -15.641,16.674 -23.75,24.75 -8.029,8.062 -15.646,16.359 -24.5,23.75 -3.875,3.213 -8.013,5.958 -12,9 l 30.5,53 c -13.289,9.821 -27.102,19.043 -41.75,27.5 -14.648,8.457 -29.601,15.902 -44.75,22.5 L 644.5,850.25 c -4.38,1.829 -8.537,4.084 -13,5.75 -10.868,4.01 -21.962,6.299 -33,9.25 -11.448,3.117 -22.64,6.713 -34.5,8.75 -4.68,0.785 -9.311,1.146 -14,1.75 V 937 c -16.419,1.861 -33.086,3 -50,3 z" /><g
           transform="scale(0.988593,-1.01141)"
           id="g18"><path
             id="path20"
             style="fill:none;stroke:#000000;stroke-width:20.00130081;stroke-linecap:butt;stroke-linejoin:miter;stroke-miterlimit:10;stroke-dasharray:none;stroke-opacity:1"
             d="m 1001.37,-494.362 c 0.05,-267.59 -221.861,-484.542 -495.626,-484.542 -273.766,0 -495.6812,216.952 -495.6286,484.542 -0.0526,267.59 221.8626,484.54165 495.6286,484.54165 273.765,0 495.676,-216.95165 495.626,-484.54165 z" /></g><path
           id="path22"
           style="fill:#000000;fill-opacity:1;fill-rule:nonzero;stroke:none"
           d="m 497.488,752.791 c -6.194,-1.124 -26.576,-11.416 -23.387,-20.396 1.511,-4.254 9.832,-7.558 13.316,-10.239 3.65,-2.809 9.609,-11.721 14.727,-10.711 3.033,0.598 5.751,4.466 7.846,6.532 4.506,4.444 8.886,7.335 14.159,10.742 2.136,1.38 5.04,2.784 5.326,5.606 0.375,3.708 -3.403,6.422 -5.715,8.765 -7.201,7.303 -15.797,11.601 -26.272,9.701 m 3.016,-54.859 c -1.91,3.834 -5.965,6.018 -8.963,8.998 -8.396,8.342 -17.666,18.559 -29.051,22.741 -4.794,1.761 -18.002,3.449 -19.078,-4.172 -0.782,-5.541 14.393,-14.411 18.074,-17.98 12.726,-12.342 23.325,-25.327 30.014,-41.885 2.686,-6.648 5.863,-24.794 11.981,-28.057 3.022,22.483 13.864,46.104 29.115,62.917 5.594,6.167 12.011,11.978 18.686,16.967 2.51,1.876 7.768,4.199 8.601,7.417 1.32,5.101 -5.416,6.327 -9.014,6.617 -9.58,0.769 -19.435,-2.807 -26.617,-9.131 -7.95,-7.003 -14.513,-19.727 -23.748,-24.432 m -87.922,24.374 c -4.458,-2.746 7.026,-17.313 8.992,-20.721 11.991,-20.794 24.465,-43.165 28.989,-67.111 2.995,-15.855 8.192,-31.491 9.97,-47.617 6.81,-61.72 1.777,-126.372 1.342,-188.627 l -0.291,-41.637 c -0.035,-5.061 -1.58,-12.978 0.508,-17.667 2.376,-5.337 20.783,-5.331 25.493,-3.247 4.829,2.138 2.839,13.858 2.869,18.163 l 0.398,56.932 c 0.306,43.912 -0.237,87.768 0.07,131.715 l 0.362,51.834 c 0.056,8.12 1.347,17.346 -0.043,25.349 -1.869,10.758 -6.786,21.106 -10.373,31.287 -8.118,23.037 -25.365,48.766 -46.537,61.685 -4.403,2.686 -16.47,12.913 -21.749,9.662 m 179.831,-3.772 c -2.534,4.672 -6.769,3.1 -10.961,1.352 -8.324,-3.471 -15.309,-9.002 -22.434,-14.376 -26.907,-20.293 -41.194,-53.299 -45.357,-85.925 -3.183,-24.95 -0.473,-52.082 -0.649,-77.25 l -1.091,-156.351 -0.232,-33.14 c -0.03,-4.418 -1.299,-11.063 0.525,-15.174 2.25,-5.068 25.143,-4.485 28.107,0.013 3.859,5.857 1.147,20.788 1.195,27.7 0.17,24.409 -0.51,48.69 -0.34,73.083 0.352,50.39 -3.327,103.064 2.877,152.906 1.582,12.711 5.833,25.025 8.432,37.508 5.308,25.486 15.397,48.424 28.686,70.741 3.593,6.036 6.524,13.762 11.242,18.913 m 45.289,-62.71 c -9.924,-1.233 -19.62,-2.142 -28.335,-7.579 -12.516,-7.81 -23.32,-14.764 -32.056,-27.104 -24.795,-35.022 -16.091,-88.646 -16.375,-129.277 l -0.433,-62.031 c -0.023,-3.323 -2.146,-18.827 3.284,-18.236 5.85,0.637 11.959,15.112 15.543,19.441 3.898,4.707 9.739,8.385 12.07,14.27 2.466,6.225 0.76,15.897 0.807,22.544 l 0.355,50.984 c 0.064,9.156 -3.824,31.191 4.037,37.268 5.637,4.36 11.087,0.772 14.001,-4.647 3.755,-6.985 1.606,-18.236 1.552,-25.96 -0.101,-14.449 0.648,-28.855 0.547,-43.342 -0.023,-3.233 -1.674,-12.232 1.872,-13.944 6.896,-3.327 19.271,9.059 25.303,11.792 5.664,2.566 15.491,4.008 19.337,9.296 1.95,2.68 1.17,7.244 1.192,10.368 l 0.172,24.642 0.659,94.321 c 0.043,6.172 0.94,13.031 4.554,18.26 2.551,3.691 9.452,8.639 6.55,13.76 -1.728,3.052 -6.082,3.328 -9.155,3.867 -8.365,1.468 -16.991,2.362 -25.481,1.307 M 389.963,465.015 c 2.828,7.749 1.814,16.449 1.871,24.63 0.111,15.881 -0.628,31.769 -0.517,47.591 0.049,7.135 -0.246,22.153 11.043,20.488 13.655,-2.015 8.439,-29.12 8.374,-38.469 -0.132,-18.879 -1.348,-38.142 0.308,-56.937 0.545,-6.186 -1.252,-13.391 1.217,-19.276 2.342,-5.585 9.571,-9.765 13.321,-14.6 3.028,-3.904 8.587,-17.216 13.392,-18.214 5.055,-1.049 3.37,11.652 3.39,14.481 l 0.35,50.135 c 0.203,29.122 1.611,58.541 -0.944,87.533 -0.816,9.254 0.098,18.727 -2.036,27.814 -7.191,30.612 -29.519,54.757 -60.361,61.56 -11.528,2.544 -33.303,7.288 -44.129,0.649 -2.613,-1.602 -4.058,-4.616 -2.658,-7.525 2.155,-4.479 6.388,-7.663 8.374,-12.482 3.618,-8.78 4.135,-21.676 4.073,-31.1 l -0.569,-81.575 c -0.061,-8.683 -3.357,-24.945 0.283,-32.812 1.827,-3.945 8.652,-4.261 12.193,-5.801 10.207,-4.441 21.959,-15.753 33.025,-16.09 m 308.556,139.217 c -10.512,-2.914 -15.143,-12.621 -17.534,-22.137 -4.483,-17.832 -1.589,-39.491 -1.718,-57.916 -0.051,-7.287 -3.01,-22.439 1.447,-28.568 3.84,-5.28 19.183,-3.699 24.634,-1.871 7.468,2.504 4.438,20.536 4.482,26.826 0.131,18.652 -0.409,37.447 0.407,56.08 0.334,7.606 3.732,15.748 1.445,23.531 -1.579,5.375 -8.696,5.292 -13.163,4.055 m -402.622,-4.926 c -8.391,-3.636 -2.034,-24.835 -2.081,-31.647 l -0.362,-51.834 c -0.043,-6.233 -2.031,-16.367 1.213,-21.92 3.148,-5.389 20.457,-5.346 25.709,-3.13 6.519,2.75 3.636,20.645 3.677,26.536 0.146,20.943 5.043,47.898 -4.466,67.16 -3.609,7.309 -14.273,18.914 -23.69,14.835 M 685.718,474.487 c -31.489,-3.963 -60.188,-20.226 -81.806,-43.422 -11.372,-12.204 -19.264,-26.384 -28.387,-40.109 -7.777,-11.699 -14.576,-26.551 -18.123,-40.173 -1.36,-5.224 -4.506,-13.784 3.298,-15.095 5.526,-0.928 17.848,-2.058 22.543,1.335 7.614,5.501 10.801,22.257 15.242,30.508 10.523,19.553 22.992,38.599 40.123,52.988 7.552,6.343 28.516,23.792 39.082,17.455 8.627,-5.174 -2.253,-14.204 -6.377,-17.36 -21.413,-16.392 -38.602,-33.352 -52.261,-56.91 -3.081,-5.315 -17.722,-26.121 -5.645,-28.374 6.679,-1.248 19.366,-1.915 25.308,1.61 11.331,6.722 16.179,26.18 25.066,35.791 20.01,21.641 42.615,37.873 70.834,46.678 11.414,3.561 25.329,7.043 37.422,5.292 3.54,-0.512 12.511,-3.931 14.785,0.521 4.123,8.073 -14.653,18.973 -19.501,22.648 -22.751,17.249 -52.117,30.326 -81.603,26.617 m -387.466,-1.578 c -24.085,-4.046 -48.143,-14.583 -66.705,-30.627 -3.201,-2.768 -19.64,-16.352 -13.862,-20.95 2.314,-1.841 6.204,-0.452 8.832,-0.29 7.032,0.431 15.12,0.709 22.09,-0.334 20.871,-3.123 40.46,-10.598 58.199,-21.856 15.814,-10.035 30.395,-24.824 41.82,-39.554 4.856,-6.261 8.435,-18.72 15.173,-22.904 6.342,-3.937 18.908,-2.828 26.1,-2.155 14.283,1.335 -1.082,25.785 -4.876,31.704 -9.108,14.209 -18.942,28.374 -32.215,39.158 -8.326,6.764 -22.381,11.636 -28.878,19.908 -4.206,5.354 0.67,11.004 6.36,12.035 9.247,1.676 20.995,-7.797 27.786,-12.932 21.789,-16.476 37.339,-37.125 50.656,-60.712 3.803,-6.735 5.857,-22.813 12.063,-26.985 4.063,-2.731 10.339,-1.704 14.99,-1.736 2.981,-0.021 6.428,-0.474 9.3,0.49 6.719,2.255 2.669,12.309 1.029,16.794 -5.581,15.262 -11.956,30.256 -21.177,43.748 -20.612,30.158 -41.854,52.658 -75.736,67.844 -15.468,6.932 -33.715,12.249 -50.949,9.354 M 773.629,409.29 c -41.083,-5.17 -71.231,-24.365 -98.632,-54.477 -4.878,-5.36 -19.563,-22.438 -17.079,-29.907 1.384,-4.164 6.828,-6.656 9.913,-9.431 3.099,-2.789 7.018,-7.655 11.595,-7.618 5.798,0.048 9.151,9.326 12.049,13.238 9.043,12.208 19.649,25.103 31.91,34.138 18.715,13.79 39.637,21.554 62.777,23.593 7.158,0.632 15.031,0.035 22.083,-1.254 2.808,-0.512 7.078,-2.386 9.683,-0.37 5.212,4.031 -3.204,13.283 -5.303,16.784 -2.117,3.522 -2.878,7.654 -5.942,10.59 -7.6,7.289 -23.305,5.94 -33.054,4.714 M 322.552,302.328 c 8.37,0.144 14.011,9.299 19.646,14.876 2.198,2.174 5.595,5.214 5.4,8.644 -0.427,7.538 -11.38,20.236 -16.49,25.424 -17.971,18.246 -36.063,35.825 -60.578,45.291 -13.556,5.236 -27.327,6.775 -41.573,8.752 -18.097,2.513 -31.263,-0.417 -38.642,-17.867 -1.452,-3.434 -6.703,-9.179 -3.786,-12.893 3.048,-3.881 11.855,-0.934 15.872,-0.105 12.07,2.489 25.44,-0.568 37.365,-2.935 33.457,-6.638 70.983,-36.67 82.786,-69.187 m 175.159,17.927 c -34.277,-5.933 -25.119,-58.712 8.978,-52.808 34.243,5.927 25.099,58.708 -8.978,52.808 m 41.022,-4.771 c -2.677,-1.341 -2.006,-5.387 -2.025,-7.853 -0.04,-5.396 -2.762,-19.752 3.293,-22.336 5.888,-2.513 15.692,-0.74 22.036,-0.785 18.062,-0.126 38.536,2.397 56.064,-2.198 6.534,-1.714 11.675,-4.854 16.697,-9.318 1.849,-1.642 5.173,-4.515 2.87,-7.194 -2.964,-3.447 -15.458,-1.255 -19.691,-1.225 l -57.775,0.403 c -5.629,0.04 -21.594,2.996 -23.55,-4.122 -3.066,-11.152 -0.456,-26.616 -0.537,-38.198 -0.026,-3.712 -1.338,-10.288 1.879,-12.979 2.559,-2.144 6.823,-1.528 9.915,-1.55 l 24.64,-0.172 82.415,-0.575 c 9.199,-0.065 23.377,-1.326 31.314,4.095 5.339,3.648 5.234,7.754 4.995,13.742 0.514,7.157 -1.547,14.472 -2.458,18.224 -3.004,12.369 -8.005,24.396 -15.323,34.747 -11.03,15.602 -28.441,30.421 -47.527,35.17 -16.348,4.067 -34.25,2.385 -50.964,2.502 l -25.489,0.178 c -3.154,0.022 -7.875,0.899 -10.779,-0.556 m -132.824,-0.502 c -8.379,-1.042 -17.384,-0.844 -25.513,-3.292 -32.442,-9.774 -57.215,-35.379 -63.576,-68.731 -1.411,-7.395 -6.98,-25.531 -1.923,-32.116 2.405,-3.135 6.873,-2.826 10.395,-2.859 l 24.64,-0.172 83.264,-0.582 c 8.823,-0.061 24.914,-2.091 32.743,2.248 6.802,3.764 4.267,16.976 4.315,28.088 0.038,9.294 1.343,18.094 -2.436,22.505 -3.312,3.865 -11.822,3.085 -16.388,3.117 l -49.279,0.344 -26.339,0.184 c -2.285,0.017 -8.057,-0.743 -8.26,2.733 -0.499,8.566 15.593,14.469 21.986,15.952 16.987,3.941 37.02,1.356 54.388,1.234 6.119,-0.042 15.478,-1.862 21.195,0.483 6.091,2.499 3.569,16.892 3.605,22.288 0.014,2.216 0.669,5.915 -1.31,7.505 -2.139,1.719 -6.277,1.046 -8.827,1.064 l -22.94,0.16 c -9.764,0.068 -20.045,1.052 -29.74,-0.153 m 96.352,-74.988 c -4.147,-0.623 -6.881,-7.025 -9.005,-10.131 -6.8,-9.944 -14.273,-19.415 -21.022,-29.389 -2.137,-3.155 -7.422,-8.514 -5.519,-12.691 2.143,-4.706 17.051,-5.549 21.712,-9.576 3.788,-3.264 9.642,-16.978 14.899,-16.046 4.436,0.794 7.732,9.855 10.681,13.038 5.702,6.164 12.907,8.119 20.99,9.099 2.674,0.321 7.066,0.724 7.218,4.335 0.17,4.103 -5.226,8.27 -7.466,11.218 -7.586,9.995 -14.419,20.829 -22.124,30.619 -2.268,2.881 -6.047,10.173 -10.364,9.524" /><path
           id="path24"
           style="fill:#000000;fill-opacity:1;fill-rule:nonzero;stroke:none"
           d="m 489.152,807.89 c -6.579,1.447 -20.626,0.509 -21.787,-8.282 -0.407,-3.087 16.565,-6.694 4.175,-9.894 -5.471,-1.708 -12.882,-2.232 -16.925,2.563 -4.099,4.86 -3.218,11.263 -11.37,11.633 -9.061,0.412 -21.566,-7.65 -25.292,-15.92 -1.609,-3.57 -2.16,-10.672 1.052,-13.542 3.524,-3.15 8.503,-3.011 12.893,-3.43 -4.882,-9.853 -30.831,-19.419 -36.72,-6.036 -3.168,7.202 2.747,16.217 -0.245,22.771 -5.022,-1.717 -4.408,-5.396 -5.829,-9.812 -3.872,-12.042 -0.508,-30.58 13.898,-33.479 11.942,-2.403 30.717,8.339 37.118,18.029 2.999,4.541 6.148,13.426 1.596,17.957 -3.717,3.698 -11.287,2.468 -16.141,3.537 1.056,2.131 2.201,3.472 4.163,4.865 1.425,1.01 2.957,1.955 4.589,2.599 13.889,5.477 11.379,-16.37 23.956,-16.804 7.598,-0.262 14.827,6.049 21.712,6.034 3.841,-0.008 7.409,-4.232 11.603,-4.637 3.91,-0.378 7.294,2.054 11.068,1.884 3.58,-0.162 6.523,-2.969 10.145,-3.339 3.608,-0.367 6.604,1.969 10.061,1.668 2.767,-0.241 4.91,-2.999 7.629,-3.755 10.012,-2.78 21.74,-5.019 32.075,-5.817 3.317,-0.255 7.674,-0.796 10.778,0.643 7.579,3.513 12.434,18.404 7.342,25.271 -8.39,11.312 -24.242,7.15 -33.99,0.877 -3.033,-1.951 -6.07,-6.635 -9.744,-7.181 -4.341,-0.645 -6.341,7.053 -7.488,8.003 -4.592,-1.243 -6.293,-6.473 -11.218,-6.382 -4.783,0.088 -6.823,7.159 -11.037,6.62 -4.198,-0.538 -7.99,-7.746 -15.374,-3.492 -10.67,7.627 14.14,10.056 -2.693,16.848 z m 73.129,-19.935 c 4.693,-0.31 8.845,-2.384 10.996,-7.869 -7.935,-1.614 -17.684,0.471 -25.428,2.594 l -0.898,0.266 c 4.413,1.632 10.638,5.318 15.33,5.009 z m -194.92,-14.709 c -0.145,-4.372 -1.673,-9.587 3.014,-11.653 2.561,-0.947 3.044,-1.301 2.969,-2.685 -1.493,-1.977 -3.113,-2.552 -5.927,-2.214 -3.564,1.151 -10.293,6.95 -10.692,3.453 0.198,-7.669 -0.336,-12.899 -7.643,-13.395 -2.404,-0.164 -6.176,3.788 -8.359,2.481 -2.282,-1.366 0.46,-7.948 -1,-10.045 -2.2,-3.16 -5.376,-5.414 -8.89,-6.837 -3.441,-1.394 -14.099,5.126 -16.065,1.573 -4.806,-18.356 15.157,-7.245 16.453,-19.869 0.868,-14.069 -14.384,-21.987 -17.939,-33.389 7.624,-1.924 16.261,2.335 20.485,8.873 3.932,6.085 5.143,13.578 4.082,20.775 -0.508,3.444 -2.928,10.166 -1.496,11.583 5.522,7.368 10.218,6.729 11.035,12.741 3.431,-1.701 17.17,7.536 16.359,11.415 5.327,-0.423 12.792,0.007 16.49,7.084 4.597,8.8 -3.816,19.59 -12.876,20.109 z M 646.44,729.129 c 0.099,-10.829 22.905,-21.112 26.497,-19.094 -4.582,-6.344 5.272,-9.451 9.63,-9.161 -2.778,-6.196 6.616,-13.842 9.3,-12.372 -0.545,-2.583 -1.284,-3.993 1.644,-6.795 4.301,-4.727 6.038,-9.098 12.59,-12.506 11.391,-5.923 31.04,18.459 23.184,28.36 -12.817,4.753 -10.863,-9.376 -11.245,-12.454 -0.172,-1.392 -0.451,-3.186 -2.009,-3.69 -7.007,-2.267 -12.77,12.203 -13.554,16.632 -2.676,2.141 -6.852,-0.962 -9.091,2.357 -1.744,2.585 -1.776,5.531 -1.71,8.518 -1.602,1.519 -8.297,-0.875 -10.704,3.346 -0.94,1.647 0.833,4.128 -0.723,5.37 -5.183,0.89 -11.533,2.015 -16.061,6.954 -3.791,4.137 -1.95,9.944 -2.144,15.037 -0.218,5.718 -4.705,12.139 -5.239,17.831 10.767,-0.358 24.902,-3.245 35.546,-2.559 4.778,0.307 9.03,2.264 9.592,7.244 -13.674,1.042 -30.432,2.017 -44.002,3.927 -5.154,0.726 -9.04,1.459 -13.596,-1.357 -3.935,-4.276 3.468,-15.71 4.481,-21.072 0.397,-2.1 2.386,-6.223 -0.717,-7.286 -6.784,-2.323 -14.872,7.758 -14.561,13.601 0.587,11.038 11.915,23.584 16.885,33.283 1.165,2.275 6.6,9.62 3.006,11.307 -4.794,2.248 -10.665,-5.463 -12.044,-9.14 -5.241,-13.971 -23.407,-31.907 -19.779,-47.56 1.765,-7.611 19.459,-16.253 24.824,-8.721 z m -42.455,49.188 c -14.097,-3.312 -25.472,-38.158 -2.119,-33.699 10.218,1.952 13.963,15.94 13.572,24.564 -0.23,5.093 -6.212,10.366 -11.453,9.135 z m -5.678,-12.819 c 4.732,-0.685 6.057,-3.126 8.271,-7.028 l -1.807,-1.691 c -5.269,1.344 -6.583,3.336 -6.464,8.719 z m 69.978,7.118 -0.077,-2.317 23.742,-1.869 c 0.203,4.108 -14.969,4.535 -23.335,4.794 m 51.816,-124.77 c 11.715,3.099 21.914,18.469 29.563,27.324 3.762,4.355 7.216,7.101 7.483,13.108 -13.493,0.131 -22.109,-17.123 -30.613,-25.902 -3.886,-4.01 -9.18,-8.694 -6.433,-14.53 z m 35.972,12.714 c -13.718,-3.363 3.987,-20.937 -3.978,-27.561 -2.649,-2.202 -5.589,0.882 -7.329,2.693 -3.595,3.739 -9.101,13.013 -15.251,10.066 -5.187,-2.488 -5.677,-8.757 -2.256,-12.819 5.14,-6.105 13.9,-13.547 22.41,-11.639 12.486,2.8 16.19,14.656 16.145,25.867 -0.023,5.529 -2.468,15.177 -9.741,13.393 m -463.529,66.186 c -3.139,0.763 -6.575,0.761 -9.753,0.073 -2.006,-9.453 4.408,-12.091 15.285,-14.265 -0.296,-3.836 -9.001,-16.102 -13.989,-14.544 -6.418,2.005 -7.126,13.921 -16.901,10.816 -10.585,-3.361 -1.293,-24.224 5.068,-28.183 -7.126,-8.257 -12.736,-18.982 -19.185,-27.879 -5.022,-6.929 -11.277,-15.484 -19.627,-18.61 -3.297,-1.234 -11.006,2.653 -12.735,0.673 -2.354,-2.698 3.747,-8.956 5.657,-10.444 6.316,-4.919 15.213,-4.189 21.521,0.287 17.818,12.64 23.764,36.451 37.263,52.544 6.705,7.993 19.148,14.967 21.625,26.047 2.845,12.722 -4.812,21.195 -14.229,23.485 z m -18.035,-30.919 c 4.476,0.803 6.066,-5.145 1.308,-5.797 -4.66,-0.639 -5.971,4.96 -1.308,5.797 z m -29.975,-16.115 -0.104,8.847 c -4.35,0.141 -12.277,2.687 -8.754,-8.67 2.436,-1.451 6.188,-0.298 8.858,-0.177 m 42.834,-30.305 c 9.747,0.317 7.795,5.046 6.884,9.083 2.468,1.113 6.339,2.162 5.406,4.467 -0.958,5.31 -1.64,6.569 -7.574,3.165 -1.746,-2.344 0.169,-3.295 0.538,-6.859 -7.988,-4.144 -8.207,-2.769 -5.254,-9.856 z m 50.937,121.41 c -4.203,0.972 -12.641,2.487 -8.407,-8.251 2.437,-1.451 8.445,-0.612 8.155,0.204 m -0.249,19.012 c -5.496,2.302 -10.716,0.825 -8.519,-8.009 0.63,-1.987 5.688,-0.997 8.358,-0.876 m 1.067,-0.676 c 0.059,-2.084 5.688,-1.727 8.913,-1.887 2.456,11.363 -2.798,9.735 -8.728,9.323 m 96.327,41.222 c 5.694,-7.917 8.534,-3.661 11.378,-0.655 2.3,-1.429 5.328,-4.06 6.722,-2.001 3.876,3.754 4.54,5.022 -1.591,8.053 -2.919,0.144 -2.643,-1.976 -5.397,-4.268 -7.892,4.324 -6.872,5.272 -11.112,-1.129 z m 74.769,-4.483 7.289,5.015 c -2.307,3.692 -4.609,11.693 -12.078,2.44 0.153,-2.832 3.201,-5.305 4.789,-7.455 m 226.092,-112.358 8.791,0.995 c -0.298,4.343 1.435,12.487 -9.509,7.836 -1.197,-2.571 0.328,-6.187 0.718,-8.831 m -35.463,20.259 c 0.543,4.28 1.199,12.827 -9.057,7.532 -1.197,-2.571 0.243,-8.464 1.026,-8.093 m 18.89,2.165 c 1.735,5.701 -0.261,10.745 -8.828,7.668 -1.913,-0.827 -0.418,-5.76 -0.028,-8.404 m -0.566,-1.129 c -2.066,-0.269 -1.143,-5.834 -0.977,-9.059 11.553,-1.297 9.403,3.766 8.395,9.624" /></g></g></g></svg>